<?xml version="1.0" standalone="no"?>
<!DOCTYPE svg PUBLIC "-//W3C//DTD SVG 20010904//EN"
 "http://www.w3.org/TR/2001/REC-SVG-20010904/DTD/svg10.dtd">
<svg version="1.0" xmlns="http://www.w3.org/2000/svg"
 width="260.000000pt" height="260.000000pt" viewBox="0 0 260.000000 260.000000"
 preserveAspectRatio="xMidYMid meet">
<metadata>
Created by potrace 1.11, written by Peter Selinger 2001-2013
</metadata>
<g transform="translate(0.000000,260.000000) scale(0.100000,-0.100000)"
fill="#000000" stroke="none">
<path d="M1843 2018 c-95 -11 -181 -35 -239 -69 -57 -32 -140 -110 -149 -140
-9 -28 -17 -23 -50 29 -52 81 -170 142 -310 159 -33 5 -278 8 -545 8 l-485 0
-1 -57 -1 -58 94 0 93 0 0 -610 0 -610 -93 0 -93 0 0 -61 0 -60 511 4 c280 2
526 7 545 11 120 25 171 40 231 71 l68 34 -4 -29 c-3 -27 0 -30 43 -44 177
-57 328 -80 517 -80 157 -1 215 7 312 39 199 67 296 201 295 410 0 145 -48
267 -129 331 -89 70 -143 92 -338 140 -330 81 -401 115 -426 208 -24 90 11
185 84 223 112 58 348 47 457 -22 50 -32 105 -106 121 -165 7 -25 16 -49 20
-54 11 -12 93 -16 109 -6 9 6 16 207 11 307 -1 14 -39 26 -186 57 -163 34
-345 48 -462 34z m-940 -144 c92 -22 148 -68 168 -139 19 -68 14 -147 -12
-201 -47 -95 -141 -133 -323 -130 l-110 1 -1 230 c0 127 1 236 3 243 6 18 194
15 275 -4z m511 -464 c32 -106 114 -184 251 -235 35 -14 147 -45 247 -70 271
-68 338 -107 356 -207 30 -167 -93 -272 -313 -267 -142 3 -242 38 -313 110
-61 60 -84 118 -93 233 -6 77 -14 110 -36 153 -50 99 -154 166 -313 202 -47
11 -77 20 -67 21 9 2 20 3 25 4 4 1 25 5 46 10 47 9 147 58 165 80 21 25 29
19 45 -34z m-564 -134 c90 -10 148 -34 200 -85 63 -60 84 -128 78 -245 -7
-133 -61 -209 -178 -252 -54 -20 -308 -33 -319 -16 -3 5 -6 142 -6 304 l1 293
29 5 c32 6 114 4 195 -4z"/>
</g>
</svg>
